# xmcd
#
# Track frame offsets: 
#        150
#        11715
#        23058
#        39423
#        50420
#        69337
#        81444
#        99658
#        113712
#        127195
#        140175
#        156457
#
# Disc length: 2289 seconds
#
# Revision: 0
# Processed by: cddbd v1.5.2PL0 Copyright (c) Steve Scherf et al.
# Submitted via: ExactAudioCopy v0.95b4
#
DISCID=a808ef0c
DTITLE=Tomorrow's News - Becky and Billy
DYEAR=2009
DGENRE=Bluegrass
TTITLE0=Good Things
TTITLE1=Matterhorn
TTITLE2=Clinch Mountain Backstep
TTITLE3=Your Love Is Like A Flower
TTITLE4=Becky and Billy
TTITLE5=Save Your Good-Bye
TTITLE6=Blessings
TTITLE7=Rosalee
TTITLE8=Those Memories Of You
TTITLE9=Redwood Hill
TTITLE10=Oh Atlanta
TTITLE11=In The Presence Of Jehovah
EXTD=
EXTT0=
EXTT1=
EXTT2=
EXTT3=
EXTT4=
EXTT5=
EXTT6=
EXTT7=
EXTT8=
EXTT9=
EXTT10=
EXTT11=
PLAYORDER=
